<svg id="Layer_1" data-name="Layer 1" xmlns="http://www.w3.org/2000/svg" viewBox="0 0 1418.53 521.61"><defs><style>.cls-1{fill:#fff;}</style></defs><title>horizontal v2-white</title><path class="cls-1" d="M686.27,373.87H661.42c0-.92,0-1.83-.09-2.76-2.87-73.44-62.52-134.37-135.82-138.69-59.77-3.52-114.06,28.89-139.3,81.78V7.11a7.11,7.11,0,1,0-14.22,0V369.77H320.63c-3.54-72.84-62.92-133-135.77-137.35-59.78-3.52-114,28.89-139.29,81.78V7.11a7.12,7.12,0,0,0-14.23,0V373.87H6.51C2.92,373.87,0,377.05,0,381s2.92,7.12,6.51,7.12H31.79c5.71,75.08,68.58,133.52,144.28,133.52A144.68,144.68,0,0,0,320.6,384h51.56A144.72,144.72,0,0,0,516.72,521.61c75.71,0,138.57-58.44,144.29-133.52h25.26c3.6,0,6.52-3.19,6.52-7.12S689.87,373.87,686.27,373.87ZM516.72,507.38A129.88,129.88,0,0,1,386.3,381c-.05-1.27-.09-2.54-.09-3.81v-.34c0-1.38,0-2.77.09-4.18A129.87,129.87,0,0,1,516.72,246.38c71.95,0,130.5,58.54,130.5,130.5S588.67,507.38,516.72,507.38Zm-340.65,0c-71.77,0-130.31-58.38-130.5-130.16v-.34a130.5,130.5,0,1,1,130.5,130.5Z"/><path class="cls-1" d="M871,370.25a55.1,55.1,0,0,0-27.7-7.15h-.94a52.11,52.11,0,0,0-25,6.07,45.27,45.27,0,0,0-17.58,16.3V342.93A52.33,52.33,0,0,0,815.13,356a55,55,0,0,0,27.25,7.07,3.31,3.31,0,0,1,.45,0,4,4,0,0,1,.49,0,55.53,55.53,0,0,0,27.7-7.17,52.41,52.41,0,0,0,19.66-19.66,58.88,58.88,0,0,0,0-56.28A52.55,52.55,0,0,0,871,260.44a55.54,55.54,0,0,0-28.19-7.17,52.71,52.71,0,0,0-25.44,6.09,45.27,45.27,0,0,0-17.58,16.3V214.35a5.45,5.45,0,0,0-5.91-5.88,5.9,5.9,0,0,0-4.22,1.57,5.66,5.66,0,0,0-1.68,4.31V419.07a56.11,56.11,0,0,0,7.58,27.51,52.45,52.45,0,0,0,19.55,19.26,54.79,54.79,0,0,0,27.7,7.07A55.54,55.54,0,0,0,871,465.74a52.36,52.36,0,0,0,19.66-19.64,55.69,55.69,0,0,0,7.16-28.21,55.11,55.11,0,0,0-7.16-28.09A52.55,52.55,0,0,0,871,370.25ZM805.4,285.69a41.82,41.82,0,0,1,15.43-15.62,44.81,44.81,0,0,1,44.1,0,43,43,0,0,1,15.43,15.62,43.86,43.86,0,0,1,5.7,22.39,44.45,44.45,0,0,1-5.7,22.5,42.85,42.85,0,0,1-15.43,15.72,44.81,44.81,0,0,1-44.1,0,41.73,41.73,0,0,1-15.43-15.72,45,45,0,0,1-5.59-22.5A44.4,44.4,0,0,1,805.4,285.69Zm75,154.7a42.7,42.7,0,0,1-15.43,15.72,44.81,44.81,0,0,1-44.1,0,41.58,41.58,0,0,1-15.43-15.72,45,45,0,0,1-5.59-22.5,44.43,44.43,0,0,1,5.59-22.39,41.82,41.82,0,0,1,15.43-15.62,44.81,44.81,0,0,1,44.1,0,43,43,0,0,1,15.43,15.62,43.89,43.89,0,0,1,5.7,22.39A44.4,44.4,0,0,1,880.36,440.39Z"/><path class="cls-1" d="M976.45,363.08a3.85,3.85,0,0,0-.48,0h.48a3.54,3.54,0,0,0,.46,0Z"/><path class="cls-1" d="M1024.09,280.08a52.72,52.72,0,0,0-19.55-19.64,55,55,0,0,0-28.09-7.17,55.59,55.59,0,0,0-28.21,7.17,52.38,52.38,0,0,0-19.64,19.64,58.63,58.63,0,0,0,0,56.19,52.36,52.36,0,0,0,19.64,19.66A55.59,55.59,0,0,0,976,363.1a3.85,3.85,0,0,1,.48,0h.46A51.62,51.62,0,0,0,1002,356.9a47.6,47.6,0,0,0,17.48-16.34V383.1a52.26,52.26,0,0,0-14.93-12.85,54.87,54.87,0,0,0-27.63-7.17,3.54,3.54,0,0,1-.46,0H976a55.16,55.16,0,0,0-27.73,7.15,52.38,52.38,0,0,0-19.64,19.64,58.67,58.67,0,0,0,0,56.21,52.3,52.3,0,0,0,19.64,19.64,55.59,55.59,0,0,0,28.21,7.17,52,52,0,0,0,25.54-6.18,47.87,47.87,0,0,0,17.48-16.35v15.46a5.68,5.68,0,0,0,1.68,4.23,5.74,5.74,0,0,0,4.22,1.66,5.67,5.67,0,0,0,4.31-1.66,5.93,5.93,0,0,0,1.58-4.23V308.28A55.55,55.55,0,0,0,1024.09,280.08Zm-10.21,50.5a43.19,43.19,0,0,1-75,0,46.84,46.84,0,0,1,0-44.79,43.07,43.07,0,0,1,75,0,47.65,47.65,0,0,1,0,44.79Zm0,109.81a41.9,41.9,0,0,1-37.43,21.52,42.46,42.46,0,0,1-37.53-21.52,46.84,46.84,0,0,1,0-44.79,43.07,43.07,0,0,1,75,0,47.65,47.65,0,0,1,0,44.79Z"/><path class="cls-1" d="M1109.85,363.08a3.85,3.85,0,0,0-.48,0h.94A3.54,3.54,0,0,0,1109.85,363.08Z"/><path class="cls-1" d="M1163.1,210a5.84,5.84,0,0,0-4.33-1.57,5.91,5.91,0,0,0-4.22,1.57,5.66,5.66,0,0,0-1.67,4.31v61.31a45.47,45.47,0,0,0-17.58-16.3,52.75,52.75,0,0,0-25.45-6.09,55.58,55.58,0,0,0-28.2,7.17A52.6,52.6,0,0,0,1062,280a58.81,58.81,0,0,0,0,56.28,52.45,52.45,0,0,0,19.65,19.66,55.58,55.58,0,0,0,27.72,7.17,3.85,3.85,0,0,1,.48,0,3.54,3.54,0,0,1,.46,0,54.84,54.84,0,0,0,27.35-7.07,53.18,53.18,0,0,0,15.22-13v42.48a45.47,45.47,0,0,0-17.58-16.3,52.45,52.45,0,0,0-25-6.07h-.94a55.15,55.15,0,0,0-27.72,7.15A52.6,52.6,0,0,0,1062,389.8a55,55,0,0,0-7.17,28.09A55.59,55.59,0,0,0,1062,446.1a52.4,52.4,0,0,0,19.65,19.64,55.58,55.58,0,0,0,28.2,7.17,54.7,54.7,0,0,0,27.81-7.07,53.65,53.65,0,0,0,27-46.77V214.35A5.83,5.83,0,0,0,1163.1,210Zm-15.82,230.35A41.81,41.81,0,0,1,1132,456.11a43.37,43.37,0,0,1-59.65-15.72,44.49,44.49,0,0,1-5.69-22.5,44,44,0,0,1,5.69-22.39A44.06,44.06,0,0,1,1132,379.88a42.05,42.05,0,0,1,15.32,15.62,44.33,44.33,0,0,1,5.6,22.39A44.85,44.85,0,0,1,1147.28,440.39Zm0-109.81a41.87,41.87,0,0,1-37.43,21.52,42.55,42.55,0,0,1-37.54-21.52,44.55,44.55,0,0,1-5.69-22.5,44,44,0,0,1,5.69-22.39A44.06,44.06,0,0,1,1132,270.07a42.05,42.05,0,0,1,15.32,15.62,44.31,44.31,0,0,1,5.6,22.39A44.9,44.9,0,0,1,1147.28,330.58Z"/><path class="cls-1" d="M1287.87,278.9a47.14,47.14,0,0,0-17.5-18.67,52,52,0,0,0-51.86.31,49.46,49.46,0,0,0-17.88,19.35q-6.5,12.28-6.48,28.39,0,15.92,6.87,28.3a49.81,49.81,0,0,0,19,19.35,54.21,54.21,0,0,0,27.61,7,56.24,56.24,0,0,0,19.34-3.73,50,50,0,0,0,16.42-9.44,4.94,4.94,0,0,0,1.87-3.94,5.45,5.45,0,0,0-2.26-3.92,5.28,5.28,0,0,0-3.83-1.28,5.53,5.53,0,0,0-3.83,1.68,33,33,0,0,1-12.28,7,47.53,47.53,0,0,1-15.43,2.66A41.53,41.53,0,0,1,1226,346.3a39.34,39.34,0,0,1-14.74-15.42,45,45,0,0,1-5.19-19.07h82.4a5.75,5.75,0,0,0,4.13-1.47,5.23,5.23,0,0,0,1.57-4Q1294.15,290.8,1287.87,278.9Zm-81.57,22.7a46.34,46.34,0,0,1,4.64-16.12,38.84,38.84,0,0,1,13.76-15.41,36,36,0,0,1,19.94-5.61,36.13,36.13,0,0,1,34,21,45.31,45.31,0,0,1,4.19,16.12Z"/><path class="cls-1" d="M1406.74,356V303.17q0-13-5-21.42a32.13,32.13,0,0,0-13.56-12.67,43.19,43.19,0,0,0-19.35-4.23,43.8,43.8,0,0,0-19.06,4A33.18,33.18,0,0,0,1336.4,280a27.17,27.17,0,0,0-4.91,15.91v84.4a46.4,46.4,0,0,1,14.34-11.81,47.53,47.53,0,0,1,23-5.61,54.84,54.84,0,0,1,25.44,5.8,43,43,0,0,1,17.79,16.9q6.46,11.1,6.48,27.4v52.86a5.9,5.9,0,1,1-11.79,0V413q0-13-5-21.42a32.19,32.19,0,0,0-13.56-12.67,43.19,43.19,0,0,0-19.35-4.23,43.8,43.8,0,0,0-19.06,4,33.18,33.18,0,0,0-13.36,11.1,27.21,27.21,0,0,0-4.91,15.91v60.13a6,6,0,0,1-1.57,4.23,6,6,0,0,1-10.23-4.23V260.34a5.64,5.64,0,0,1,1.68-4.33,5.85,5.85,0,0,1,10.12,4.33v10.15a46.74,46.74,0,0,1,14.34-11.83,47.74,47.74,0,0,1,23-5.59,55,55,0,0,1,25.44,5.79,43,43,0,0,1,17.79,16.91q6.46,11.1,6.48,27.4V356a5.71,5.71,0,0,1-5.9,5.89,5.71,5.71,0,0,1-5.89-5.89Z"/><path class="cls-1" d="M842.83,363.08a3.31,3.31,0,0,0-.45,0h.94A4,4,0,0,0,842.83,363.08Z"/><path class="cls-1" d="M976.45,363.08a3.85,3.85,0,0,0-.48,0h.48a3.54,3.54,0,0,0,.46,0Z"/><path class="cls-1" d="M1109.85,363.08a3.85,3.85,0,0,0-.48,0h.94A3.54,3.54,0,0,0,1109.85,363.08Z"/><path class="cls-1" d="M1287.87,388.72a47.14,47.14,0,0,0-17.5-18.67,52,52,0,0,0-51.86.3,49.46,49.46,0,0,0-17.88,19.35q-6.5,12.29-6.48,28.4,0,15.9,6.87,28.29a49.81,49.81,0,0,0,19,19.35,54.21,54.21,0,0,0,27.61,7,55.77,55.77,0,0,0,19.34-3.73,49.85,49.85,0,0,0,16.42-9.44,4.93,4.93,0,0,0,1.87-3.92,5.45,5.45,0,0,0-2.26-3.94,5.33,5.33,0,0,0-3.83-1.28,5.53,5.53,0,0,0-3.83,1.68,33.16,33.16,0,0,1-12.28,7,47.78,47.78,0,0,1-15.43,2.65,41.43,41.43,0,0,1-21.61-5.61,39.34,39.34,0,0,1-14.74-15.42,45.08,45.08,0,0,1-5.19-19.05h82.4a5.77,5.77,0,0,0,4.13-1.49,5.23,5.23,0,0,0,1.57-4Q1294.15,400.6,1287.87,388.72Zm-81.57,22.69a46.34,46.34,0,0,1,4.64-16.12,38.84,38.84,0,0,1,13.76-15.41,36.11,36.11,0,0,1,19.94-5.61,37.18,37.18,0,0,1,20.53,5.61,36.74,36.74,0,0,1,13.46,15.41,45.31,45.31,0,0,1,4.19,16.12Z"/><path class="cls-1" d="M807.14,511.65a12.46,12.46,0,0,0-4.26-1.22,13.88,13.88,0,0,1-3.16-.77,3.9,3.9,0,0,1-1.71-1.19,2.62,2.62,0,0,1-.52-1.63,2.88,2.88,0,0,1,1.26-2.34,5.67,5.67,0,0,1,3.52-1,6.89,6.89,0,0,1,3,.6,5.81,5.81,0,0,1,2.18,1.74,1.13,1.13,0,0,0,.68.43,1.15,1.15,0,0,0,.75-.11,1,1,0,0,0,.56-.67.86.86,0,0,0-.2-.77,7.53,7.53,0,0,0-2.73-2.35,8.82,8.82,0,0,0-4.13-.88,9.56,9.56,0,0,0-3.58.63A5.48,5.48,0,0,0,796.3,504a5,5,0,0,0-.9,3,4.24,4.24,0,0,0,1.73,3.33,10.6,10.6,0,0,0,5.32,2,10,10,0,0,1,4.15,1.31A2.72,2.72,0,0,1,808,516a3.22,3.22,0,0,1-1.26,2.51c-.84.72-2.27,1.08-4.28,1.08a10.55,10.55,0,0,1-3.25-.48,5.6,5.6,0,0,1-2.53-1.71,1,1,0,0,0-.67-.4,1,1,0,0,0-.77.18,1.05,1.05,0,0,0-.45.7,1,1,0,0,0,.23.77,7.51,7.51,0,0,0,3.42,2.31,12.48,12.48,0,0,0,3.91.68,10.52,10.52,0,0,0,3.81-.67A6.69,6.69,0,0,0,809,519a4.38,4.38,0,0,0,1.08-2.94,4.72,4.72,0,0,0-.66-2.43A5.73,5.73,0,0,0,807.14,511.65Z"/><path class="cls-1" d="M822.43,501.73a1.08,1.08,0,0,0-.77.29,1,1,0,0,0-.31.79v17.5a1.11,1.11,0,0,0,1.87.78,1.11,1.11,0,0,0,.29-.78v-17.5a1.1,1.1,0,0,0-.29-.79A1.08,1.08,0,0,0,822.43,501.73Z"/><path class="cls-1" d="M822.43,494.26a1.87,1.87,0,0,0-1.17.41,1.49,1.49,0,0,0-.52,1.24,1.64,1.64,0,0,0,.49,1.21,1.59,1.59,0,0,0,1.17.48,1.66,1.66,0,0,0,1.69-1.69,1.49,1.49,0,0,0-.53-1.24A1.79,1.79,0,0,0,822.43,494.26Z"/><path class="cls-1" d="M850.08,502.55a10,10,0,0,0-4.65-1.07,8.73,8.73,0,0,0-4.2,1,8.4,8.4,0,0,0-2.63,2.25v-1.95a1,1,0,0,0-1.08-1.08,1.08,1.08,0,0,0-.77.29,1,1,0,0,0-.31.79v17.5a1.11,1.11,0,0,0,1.87.78,1.06,1.06,0,0,0,.29-.78v-11a5,5,0,0,1,.9-2.91,6.1,6.1,0,0,1,2.44-2,8.56,8.56,0,0,1,7,0,5.9,5.9,0,0,1,2.48,2.32,7.58,7.58,0,0,1,.91,3.92v9.66a1.08,1.08,0,0,0,.31.78,1,1,0,0,0,.77.3,1.09,1.09,0,0,0,.78-.3,1.07,1.07,0,0,0,.3-.78v-9.66a9.84,9.84,0,0,0-1.18-5A7.86,7.86,0,0,0,850.08,502.55Z"/><path class="cls-1" d="M870.82,504.61a6.63,6.63,0,0,1,3.72-1,7.33,7.33,0,0,1,5.86,2.73,1,1,0,0,0,.68.41,1,1,0,0,0,.72-.19,1,1,0,0,0,.47-.65,1,1,0,0,0-.22-.76,8.79,8.79,0,0,0-3.31-2.67,9.85,9.85,0,0,0-4.2-.89,8.74,8.74,0,0,0-4.78,1.32,9.09,9.09,0,0,0-3.27,3.57,10.94,10.94,0,0,0-1.18,5.14,10.19,10.19,0,0,0,1.27,5.1,9.53,9.53,0,0,0,8.5,4.93,9.33,9.33,0,0,0,6.54-2.41.8.8,0,0,0,.3-.7,1,1,0,0,0-.37-.74.83.83,0,0,0-.68-.25,1.31,1.31,0,0,0-.72.32,5.94,5.94,0,0,1-2.28,1.33,8.86,8.86,0,0,1-2.79.44,7.43,7.43,0,0,1-4-1.06,7.51,7.51,0,0,1-2.68-2.88,8.48,8.48,0,0,1-1-4.08,9.25,9.25,0,0,1,.88-4.13A7,7,0,0,1,870.82,504.61Z"/><path class="cls-1" d="M906.31,502.8a9.47,9.47,0,0,0-9.49.05,9,9,0,0,0-3.27,3.54,11,11,0,0,0-1.19,5.19,10.48,10.48,0,0,0,1.26,5.18,9.15,9.15,0,0,0,3.47,3.54,9.89,9.89,0,0,0,5,1.27,10.39,10.39,0,0,0,3.54-.68,9,9,0,0,0,3-1.73.88.88,0,0,0,.34-.71,1,1,0,0,0-.42-.72.93.93,0,0,0-.69-.24,1,1,0,0,0-.7.31,6.22,6.22,0,0,1-2.25,1.28,8.79,8.79,0,0,1-2.82.48,7.6,7.6,0,0,1-3.95-1,7.25,7.25,0,0,1-2.7-2.82,8.46,8.46,0,0,1-.9-3.49h15a1.05,1.05,0,0,0,.76-.27,1,1,0,0,0,.28-.74,10.52,10.52,0,0,0-1.15-5A8.53,8.53,0,0,0,906.31,502.8Zm-10.87,4.62a7,7,0,0,1,2.51-2.83,6.62,6.62,0,0,1,3.65-1,6.6,6.6,0,0,1,6.22,3.85,8.35,8.35,0,0,1,.7,2.94H894.65A8.34,8.34,0,0,1,895.44,507.42Z"/><path class="cls-1" d="M942.68,493.29a1.81,1.81,0,0,0-.36,0,3.14,3.14,0,0,0-.4.13l-5.5,1.83a1,1,0,0,0-.51.43,1.25,1.25,0,0,0-.17.61,1,1,0,0,0,1.08,1.08,1.24,1.24,0,0,0,.47-.1l4.27-1.41v24.4a1,1,0,0,0,.32.78,1.15,1.15,0,0,0,.8.3,1,1,0,0,0,1.07-1.08V494.37a1,1,0,0,0-.3-.77A1,1,0,0,0,942.68,493.29Z"/><path class="cls-1" d="M970.38,497.39a8.05,8.05,0,0,0-3-3,8.9,8.9,0,0,0-8.57,0,8.09,8.09,0,0,0-3,3,9,9,0,0,0,0,8.57,8.18,8.18,0,0,0,7.28,4.11,8.69,8.69,0,0,0,2.48-.37l-6.18,10a1,1,0,0,0-.16.79,1.09,1.09,0,0,0,.37.65,1,1,0,0,0,.72.25,1.17,1.17,0,0,0,1-.61l9.2-15-.07,0a8.69,8.69,0,0,0-.08-8.39Zm-10.49,9.74a6.17,6.17,0,0,1-2.23-2.25,6.3,6.3,0,0,1-.82-3.22,6.23,6.23,0,0,1,.82-3.18,6.4,6.4,0,0,1,8.62-2.24,6,6,0,0,1,2.27,2.24,6.23,6.23,0,0,1,.83,3.18,6.3,6.3,0,0,1-.83,3.22,6.05,6.05,0,0,1-2.27,2.25,6.26,6.26,0,0,1-3.19.82A6.17,6.17,0,0,1,959.89,507.13Z"/><path class="cls-1" d="M996.87,497.39a8.12,8.12,0,0,0-3-3,8.9,8.9,0,0,0-8.57,0,8.09,8.09,0,0,0-3,3,9,9,0,0,0,0,8.57,8.18,8.18,0,0,0,7.28,4.11,8.69,8.69,0,0,0,2.48-.37l-6.18,10a1,1,0,0,0-.17.79,1.16,1.16,0,0,0,.38.65,1,1,0,0,0,.72.25,1.17,1.17,0,0,0,1-.61l9.2-15-.07,0a8.69,8.69,0,0,0-.08-8.39Zm-10.49,9.74a6.17,6.17,0,0,1-2.23-2.25,6.3,6.3,0,0,1-.83-3.22,6.23,6.23,0,0,1,.83-3.18,6.34,6.34,0,0,1,10.89,0,6.23,6.23,0,0,1,.83,3.18,6.3,6.3,0,0,1-.83,3.22,6.13,6.13,0,0,1-2.27,2.25,6.26,6.26,0,0,1-3.19.82A6.17,6.17,0,0,1,986.38,507.13Z"/><path class="cls-1" d="M1024.09,508.73a8.22,8.22,0,0,0-7.28-4.12,8.7,8.7,0,0,0-2.48.38l6.19-10a1.05,1.05,0,0,0,.16-.79,1.23,1.23,0,0,0-.38-.65,1,1,0,0,0-.72-.25,1.17,1.17,0,0,0-1,.61l-9.05,14.82h0l-.14.22.06,0a8.67,8.67,0,0,0,.08,8.38,8.08,8.08,0,0,0,3,3,9,9,0,0,0,8.57,0,8,8,0,0,0,3-3,8.88,8.88,0,0,0,0-8.56Zm-1.85,7.47a6.09,6.09,0,0,1-2.23,2.25,6.17,6.17,0,0,1-3.2.82,6.29,6.29,0,0,1-3.19-.82,6.13,6.13,0,0,1-2.27-2.25,6.23,6.23,0,0,1-.82-3.18,6.3,6.3,0,0,1,.82-3.22,6.17,6.17,0,0,1,2.27-2.24,6.3,6.3,0,0,1,3.19-.83,6.13,6.13,0,0,1,5.43,3.07,6.3,6.3,0,0,1,.83,3.22A6.23,6.23,0,0,1,1022.24,516.2Z"/></svg>